<?xml version="1.0" encoding="utf-8"?>
<!-- Generator: Adobe Illustrator 23.0.3, SVG Export Plug-In . SVG Version: 6.00 Build 0)  -->
<svg version="1.1" id="Capa_1" xmlns="http://www.w3.org/2000/svg" xmlns:xlink="http://www.w3.org/1999/xlink" x="0px" y="0px"
	 viewBox="0 0 64 64" style="enable-background:new 0 0 64 64;" xml:space="preserve">
<style type="text/css">
	.st0{fill:#293033;}
	.st1{fill:#E6F2EE;}
</style>
<title>logotipo-arnold-restrepo</title>
<g>
	<rect class="st0" width="64" height="64"/>
</g>
<g>
	<path class="st1" d="M28,47l-2.1-5.3h-13L10.8,47H2.7l12.9-30h8.1l12.6,30.1L28,47z M15.2,35.7h8.3L19.5,25L15.2,35.7z"/>
	<path class="st1" d="M51.1,47.1l-4.4-8.3h-5.8v8.3H33V17h13.6c4,0,7.1,0.9,9.2,2.8c2.2,1.9,3.5,4.8,3.3,7.8c0.1,2-0.4,4.1-1.4,5.9
		c-0.9,1.7-2.3,3-4,3.8l6.3,9.8H51.1z M40.9,32.5h5.7c1.3,0.1,2.7-0.3,3.7-1.2c0.9-0.9,1.4-2.2,1.3-3.5c0.1-1.3-0.4-2.5-1.3-3.4
		c-1-0.8-2.4-1.3-3.7-1.2h-5.7V32.5z"/>
</g>
</svg>
